<?xml version="1.0" standalone="no"?>
<!DOCTYPE svg PUBLIC "-//W3C//DTD SVG 20010904//EN"
 "http://www.w3.org/TR/2001/REC-SVG-20010904/DTD/svg10.dtd">
<svg version="1.0" xmlns="http://www.w3.org/2000/svg"
 width="1280.000000pt" height="674.000000pt" viewBox="0 0 1280.000000 674.000000"
 preserveAspectRatio="xMidYMid meet">
<metadata>
Created by potrace 1.15, written by Peter Selinger 2001-2017
</metadata>
<g transform="translate(0.000000,674.000000) scale(0.100000,-0.100000)"
fill="#000000" stroke="none">
<path d="M7625 6651 c-207 -79 -230 -91 -236 -114 -9 -33 -27 -291 -38 -527
-9 -203 -19 -235 -76 -246 -19 -3 -47 -3 -61 0 -25 7 -26 9 -21 59 13 122 30
628 21 636 -23 23 -239 103 -278 102 -23 0 -84 -15 -136 -33 l-95 -33 -7 -160
c-8 -178 -36 -530 -45 -559 -5 -17 -14 -18 -138 -11 l-133 7 -6 -134 c-40
-776 -61 -1088 -77 -1088 -17 0 -47 53 -54 96 -5 33 -2 52 9 69 9 14 16 33 16
43 0 29 -47 71 -89 79 l-36 7 44 12 c87 26 91 49 19 116 -52 48 -55 62 -14 70
35 6 28 26 -33 93 -64 70 -71 92 -46 135 15 27 19 68 9 95 -15 38 -109 58
-168 35 -15 -5 -35 -28 -50 -59 -14 -27 -38 -58 -53 -69 -18 -13 -33 -36 -40
-64 -9 -32 -25 -56 -55 -83 -56 -50 -88 -102 -88 -144 0 -20 -10 -50 -24 -70
-14 -20 -29 -62 -35 -94 -7 -37 -22 -74 -43 -103 -59 -83 -68 -99 -68 -126 0
-33 25 -43 86 -33 24 3 44 3 44 -1 0 -3 -16 -24 -36 -46 -19 -22 -34 -47 -32
-56 6 -30 67 -62 119 -62 37 0 49 -4 49 -15 0 -37 80 -43 115 -9 21 22 28 12
20 -25 -13 -62 -39 -73 -767 -317 -546 -183 -807 -279 -943 -347 -116 -57
-245 -151 -245 -178 0 -19 45 -48 98 -62 31 -9 116 -26 188 -38 l131 -23 169
91 c179 95 288 146 399 188 97 37 328 106 334 100 10 -11 -76 -88 -118 -106
-24 -11 -72 -46 -106 -77 -38 -36 -98 -77 -154 -106 -103 -53 -163 -100 -155
-121 8 -21 97 -60 179 -79 203 -47 485 -73 890 -81 529 -10 931 -44 899 -75
-5 -5 -52 -20 -104 -33 -52 -14 -153 -46 -225 -71 -106 -37 -151 -47 -245 -56
-63 -6 -194 -24 -290 -41 -370 -64 -627 -48 -1106 68 l-194 47 3 90 2 91 -53
-1 c-65 -2 -98 -22 -106 -67 -8 -45 -31 -63 -86 -72 -65 -10 -202 -66 -391
-161 l-166 -83 -61 62 -61 62 62 34 c130 70 303 172 327 191 l25 20 -30 25
c-29 24 -163 72 -266 95 -72 16 -114 4 -352 -102 -308 -136 -317 -138 -377
-85 -20 17 -45 37 -56 44 -18 11 -17 12 8 12 17 1 33 10 43 25 17 25 13 47
-17 85 -15 20 -17 35 -12 83 7 58 6 60 -29 92 -24 22 -37 44 -41 69 -3 20 -8
53 -11 72 -10 64 -49 82 -90 41 -25 -26 -39 -68 -52 -160 -7 -52 -11 -60 -31
-61 -43 -3 -112 -87 -112 -138 0 -13 -11 -38 -25 -57 -23 -31 -25 -42 -23
-111 3 -68 0 -81 -20 -109 -13 -17 -21 -34 -19 -37 10 -9 73 27 122 71 55 48
54 56 -7 76 -28 8 -38 17 -38 32 0 26 62 88 87 88 31 0 34 11 12 47 -30 47
-20 79 29 92 20 6 43 11 50 11 20 0 32 45 32 116 0 70 12 104 35 104 15 0 20
-15 29 -94 3 -27 16 -64 27 -83 17 -27 20 -43 15 -75 -6 -34 -2 -47 20 -79 27
-40 25 -59 -5 -59 -27 0 -43 -24 -39 -62 3 -30 7 -34 46 -42 42 -9 44 -10 38
-39 -5 -23 -1 -36 15 -53 43 -45 16 -63 -226 -147 -88 -30 -170 -58 -182 -62
-21 -6 -22 -4 -20 47 2 53 2 53 -28 53 -25 0 -30 -5 -36 -33 -4 -18 -17 -44
-30 -58 -38 -41 -225 -125 -599 -269 -694 -268 -1060 -422 -1060 -445 0 -21
34 -22 80 -3 35 15 51 18 59 10 15 -15 14 -101 -2 -140 -19 -45 -63 -78 -402
-304 -353 -234 -396 -265 -452 -326 -47 -51 -60 -87 -47 -126 29 -85 494 -214
1013 -281 l145 -19 104 97 c239 224 264 242 332 242 47 0 177 -28 185 -39 2
-5 -56 -74 -130 -155 -74 -81 -140 -156 -145 -166 -12 -22 0 -26 171 -59 222
-42 255 -40 479 30 213 66 313 110 293 130 -7 7 -89 -16 -229 -62 -265 -87
-310 -93 -501 -59 -70 12 -136 25 -145 29 -15 5 5 29 104 122 164 154 162 153
279 160 140 8 149 13 889 453 385 228 566 326 606 326 13 0 48 -12 76 -26 31
-16 59 -23 73 -20 38 10 195 119 195 136 0 8 -15 24 -34 34 -36 19 -51 40 -40
57 3 5 44 9 91 8 82 -2 87 -1 110 25 44 51 28 134 -39 198 -36 34 -38 39 -32
80 4 23 7 45 6 48 0 33 -7 42 -42 56 -22 9 -45 25 -51 36 -13 25 -3 55 22 63
26 9 24 32 -8 77 -33 48 -46 37 197 162 221 113 330 147 330 102 0 -21 -52
-110 -99 -169 -115 -145 -121 -158 -76 -179 32 -14 32 -35 0 -129 -16 -47 -29
-113 -34 -181 -9 -102 -10 -109 -39 -133 -37 -31 -106 -163 -127 -240 -8 -32
-22 -63 -31 -70 -33 -24 -1 -320 37 -347 8 -5 39 -7 71 -4 39 4 57 2 61 -7 2
-6 -4 -46 -14 -87 -29 -118 -22 -164 16 -106 31 47 44 276 17 276 -4 0 -25 -9
-47 -20 -42 -21 -81 -25 -104 -11 -12 8 -7 20 27 65 23 30 42 57 42 60 0 2
-14 7 -31 11 -30 7 -31 9 -25 46 6 37 5 39 -13 29 -27 -14 -31 -13 -31 10 0
10 15 36 32 56 23 26 37 55 45 98 16 77 66 179 98 200 14 9 36 39 50 66 29 58
44 67 120 76 l57 7 -31 24 c-19 15 -31 34 -31 48 0 44 -22 40 -67 -10 l-43
-49 0 36 c0 45 19 104 70 218 21 46 36 88 34 92 -3 4 -19 8 -35 8 -33 0 -48
22 -30 44 7 8 43 24 81 35 38 12 72 26 75 31 4 6 -3 23 -14 39 -27 37 -26 47
4 82 26 32 45 87 45 132 0 51 49 127 81 127 16 0 18 -10 16 -97 -1 -88 2 -104
27 -158 53 -114 53 -106 -6 -103 -69 4 -73 -16 -18 -76 55 -60 50 -79 -20 -70
-40 5 -50 4 -50 -8 0 -16 43 -86 89 -142 39 -48 39 -62 1 -70 -37 -7 -37 -15
-5 -141 14 -53 23 -101 20 -106 -4 -5 -22 -9 -40 -9 -25 0 -37 -6 -46 -21 -17
-32 -7 -186 15 -227 10 -19 15 -36 12 -39 -3 -4 -36 -1 -73 5 -42 7 -71 8 -77
2 -18 -18 14 -87 69 -149 30 -34 56 -67 56 -74 7 -72 -78 -120 -201 -116 l-75
3 1 -94 c1 -106 16 -165 46 -181 30 -16 32 -5 3 36 -51 76 -25 165 49 165 18
0 55 9 80 21 54 23 103 20 154 -11 43 -27 44 -72 2 -125 -21 -26 -27 -42 -20
-49 16 -16 57 30 78 87 l19 50 6 -32 c10 -49 37 -100 59 -112 29 -16 32 -4 8
29 -30 41 -37 103 -14 126 15 16 31 18 102 14 103 -6 116 -17 108 -93 -12
-101 -25 -284 -32 -436 l-7 -157 72 -13 c39 -7 68 -16 64 -20 -18 -17 -178
-50 -246 -51 -39 0 -145 10 -235 22 -117 17 -165 21 -173 13 -55 -55 331 -77
722 -42 134 12 196 1 514 -86 202 -55 243 -64 269 -55 17 5 103 51 191 101
227 130 274 150 365 156 77 5 88 2 340 -67 159 -44 417 -64 490 -39 22 8 37
22 46 45 18 43 95 97 304 213 206 114 218 118 301 97 82 -21 469 -36 469 -18
0 8 -18 12 -48 12 -69 0 -282 28 -384 50 -105 23 -181 54 -176 72 16 47 145
83 255 72 60 -6 67 -5 56 8 -7 8 -31 23 -53 33 -22 10 -39 23 -37 29 5 16 135
84 175 92 26 5 37 2 53 -14 49 -54 181 -38 278 33 26 19 46 25 85 25 51 0 56
2 147 65 l43 30 158 0 c98 0 158 4 158 10 1 14 -42 21 -195 34 -71 6 -152 18
-180 25 -45 12 -48 14 -27 23 13 5 35 32 50 62 18 36 39 60 62 73 38 21 63 21
330 -3 176 -15 394 2 460 36 14 7 48 42 75 77 27 34 98 113 157 174 59 62 108
117 108 123 0 41 -193 -136 -329 -302 l-65 -78 -60 5 c-34 3 -128 8 -211 11
-231 9 -405 24 -460 40 -54 15 -82 39 -109 92 -26 53 -59 67 -160 73 l-91 5 3
61 c4 58 2 62 -26 82 -38 28 -42 52 -29 184 12 125 7 141 -61 219 l-41 46 122
27 c150 32 203 33 337 1 130 -31 278 -42 357 -26 32 6 108 27 168 46 61 19
163 46 227 60 129 27 185 47 238 82 25 16 49 23 85 23 53 0 595 -89 705 -116
98 -24 102 -34 41 -82 -28 -23 -91 -64 -139 -93 -175 -105 -275 -179 -243
-179 17 0 76 31 183 96 51 31 115 66 143 79 64 30 145 93 165 128 14 26 14 29
-7 46 -38 32 -324 94 -553 121 -195 23 -269 42 -239 61 22 14 135 10 384 -11
260 -22 321 -24 330 -10 13 22 -59 32 -271 40 -122 4 -227 11 -234 15 -10 6
-11 36 -6 127 4 65 11 130 16 144 13 34 84 64 168 71 97 8 170 -15 232 -73 56
-53 62 -53 225 -19 149 32 296 41 395 26 99 -15 238 -50 273 -68 24 -12 27
-17 15 -30 -17 -20 -158 -115 -278 -186 -135 -80 -166 -86 -279 -59 -106 26
-141 28 -141 8 0 -31 184 -74 268 -62 52 7 184 75 347 178 140 88 168 114 154
140 -23 42 -246 120 -386 134 -42 5 -68 13 -79 25 -10 11 -14 22 -10 26 3 4
57 -3 119 -15 145 -29 279 -44 290 -33 12 12 -69 37 -182 55 -52 9 -96 17 -97
19 -2 2 65 20 149 40 181 44 241 46 357 11 47 -13 136 -32 198 -40 106 -14
215 -45 227 -64 18 -29 -96 -59 -258 -67 -104 -5 -143 -3 -207 12 -120 27
-120 0 -1 -47 43 -16 77 -21 146 -21 95 0 130 6 343 55 107 24 130 33 122 44
-7 7 -55 34 -107 59 -118 56 -115 70 15 70 73 0 105 -6 197 -37 234 -77 435
-92 435 -32 0 15 -9 16 -79 10 -96 -8 -200 10 -304 54 -79 33 -122 66 -96 74
8 2 36 6 62 9 69 7 87 27 87 97 0 64 -33 200 -59 245 -9 17 -27 31 -39 33 -22
3 -32 22 -12 22 23 0 7 35 -40 85 -50 52 -171 143 -265 198 l-48 28 22 23 c21
22 28 71 13 91 -4 6 -16 15 -27 21 -11 6 -31 31 -45 56 -34 61 -49 78 -71 78
-32 0 -83 -55 -127 -139 -48 -90 -63 -97 -105 -53 -30 32 -34 54 -12 72 8 7
15 27 15 45 0 35 -16 52 -79 87 -18 10 -31 25 -31 37 0 29 -28 53 -54 45 -43
-14 -72 -44 -126 -134 -41 -69 -63 -96 -87 -106 -69 -29 -450 -94 -554 -94
l-51 0 6 153 c4 83 11 238 16 342 12 232 15 444 7 452 -13 13 -98 22 -204 23
l-113 0 0 169 0 168 -37 7 c-21 3 -100 11 -176 18 -117 9 -140 9 -152 -3 -10
-9 -18 -60 -25 -154 -26 -337 -28 -349 -49 -366 -11 -9 -38 -19 -60 -23 -49
-8 -66 -31 -76 -103 -11 -88 -5 -86 -205 -53 -96 17 -185 34 -197 40 -29 12
-29 20 -2 539 20 375 21 405 5 416 -22 16 -170 47 -456 96 -320 54 -369 58
-454 29 -47 -15 -71 -19 -78 -12 -7 7 -6 73 6 214 9 112 17 259 19 327 l2 125
-220 47 c-121 26 -224 48 -230 48 -5 0 -113 -40 -240 -88z m433 2 c72 -15 132
-30 132 -33 0 -3 -73 -26 -162 -50 -145 -40 -175 -45 -268 -45 -110 0 -214 19
-207 38 8 24 266 116 327 117 25 0 105 -12 178 -27z m205 -104 c8 -29 -11
-451 -23 -519 -12 -69 -37 -93 -131 -121 -38 -12 -73 -28 -78 -38 -27 -50 -46
-230 -60 -566 -10 -213 -19 -265 -46 -265 -8 0 -27 18 -42 41 -27 42 -68 69
-101 69 -40 0 -47 26 -45 159 2 145 17 396 38 656 26 315 48 477 69 493 17 14
99 39 248 77 158 41 164 41 171 14z m-1228 -53 c19 -8 35 -22 35 -30 0 -21
-65 -39 -114 -32 -96 15 -131 41 -88 65 25 15 128 13 167 -3z m605 -10 c116
-18 131 -31 124 -109 -7 -75 -40 -594 -60 -939 l-18 -297 -60 -5 c-34 -3 -123
-8 -198 -11 l-138 -6 0 144 c0 161 -6 181 -55 175 -42 -4 -54 -36 -74 -201
l-17 -142 -176 -3 -177 -2 -100 -108 c-102 -109 -211 -241 -211 -254 0 -4 12
-6 28 -5 24 2 27 -2 31 -33 1 -19 -5 -124 -15 -232 l-17 -198 -42 0 c-81 0
-301 21 -370 35 -72 15 -118 46 -99 65 8 8 33 6 85 -4 88 -18 257 -46 280 -46
14 0 17 45 23 423 9 568 30 904 59 967 12 24 15 25 138 28 l125 3 12 217 c16
289 32 485 41 494 3 4 57 -9 120 -29 l114 -37 66 18 c122 33 111 36 111 -30 0
-68 -17 -435 -26 -571 l-6 -93 119 0 119 0 12 248 c7 136 21 315 32 397 11 83
20 151 20 153 0 7 117 0 200 -12z m1035 -541 c230 -34 465 -88 465 -105 0 -5
-14 -17 -32 -26 -43 -22 -150 -15 -366 26 -90 16 -183 30 -207 30 -25 0 -81
-15 -136 -36 -121 -47 -181 -53 -242 -26 -26 12 -47 27 -47 36 0 20 167 83
284 106 66 13 174 11 281 -5z m-169 -334 c-10 -314 -26 -671 -32 -738 -5 -54
-8 -63 -25 -63 -33 0 -89 28 -89 44 0 9 11 49 25 89 21 63 23 79 14 113 -23
80 -80 125 -129 101 -26 -13 -31 -22 -55 -90 -10 -29 -38 -71 -70 -105 -59
-63 -68 -63 -109 -8 -20 26 -21 41 -20 209 2 202 30 597 45 611 5 6 34 1 74
-13 79 -28 107 -26 255 22 58 19 109 32 114 29 5 -3 6 -89 2 -201z m309 168
c88 -18 164 -35 168 -39 12 -11 -33 -733 -46 -747 -14 -13 -400 -183 -406
-178 -27 28 6 818 40 947 15 58 28 59 244 17z m431 -26 c-3 -32 -8 -123 -11
-203 -13 -318 -43 -612 -63 -624 -16 -8 -125 22 -144 41 -19 19 -20 32 -19
189 1 184 16 429 32 510 12 62 26 76 115 114 96 41 97 41 90 -27z m944 -450
c0 -364 -24 -648 -58 -685 -8 -10 -25 -18 -37 -18 -12 0 -39 -11 -59 -25 -20
-14 -39 -25 -41 -25 -3 0 -5 91 -5 203 0 224 -5 243 -58 262 -51 16 -56 33
-48 164 7 127 31 319 40 328 12 12 83 21 174 22 l92 1 0 -227z m-4114 50 c30
-19 30 -30 -1 -55 -43 -34 -31 -99 32 -176 29 -35 33 -46 22 -53 -8 -5 -21 -9
-29 -9 -37 0 -54 -56 -25 -80 8 -6 31 -13 51 -15 25 -3 47 -14 68 -34 16 -17
28 -32 25 -35 -2 -2 -26 1 -52 7 -55 12 -79 -2 -79 -47 0 -39 28 -64 75 -68
52 -4 58 -23 13 -42 l-36 -15 6 -59 c6 -53 4 -61 -16 -75 -44 -31 -7 -68 85
-83 43 -7 85 -29 85 -44 0 -6 -7 -10 -15 -10 -24 0 -17 -30 15 -67 17 -18 30
-39 30 -45 0 -21 -72 1 -118 37 -38 29 -51 34 -78 29 -18 -3 -58 2 -93 12 -34
9 -65 14 -69 10 -9 -10 -9 -204 1 -239 10 -36 32 -30 32 9 l0 29 80 3 c74 3
394 -23 403 -33 12 -11 -12 -37 -60 -65 -89 -51 -204 -90 -408 -141 -107 -26
-278 -71 -380 -99 -102 -28 -230 -57 -284 -66 -111 -16 -409 -110 -575 -181
-57 -24 -165 -75 -240 -112 -186 -93 -226 -105 -321 -98 -94 7 -217 34 -227
50 -18 30 153 134 360 217 369 150 1122 399 1390 460 73 17 101 20 110 11 29
-29 42 2 63 149 15 110 13 144 -9 153 -21 8 -73 -21 -87 -49 -16 -30 -26 -31
-33 -3 -6 21 -10 21 -86 15 -102 -9 -107 6 -23 62 72 50 96 76 88 98 -6 15
-18 16 -101 10 -52 -3 -95 -3 -95 2 0 14 43 50 73 61 16 6 51 11 79 11 l50 0
-51 40 c-28 22 -58 51 -67 65 -15 23 -15 27 3 57 22 39 106 98 139 98 12 0 26
5 30 11 12 20 -22 41 -77 47 l-54 7 35 27 c43 32 82 48 120 48 37 0 46 15 26
45 -32 49 -17 89 41 104 25 6 29 13 34 56 9 80 58 103 125 58z m1178 11 c11
-28 6 -103 -10 -176 -13 -58 -18 -68 -26 -53 -11 19 -6 214 6 233 10 17 23 15
30 -4z m3272 -569 c-9 -159 -21 -333 -27 -384 -22 -191 -32 -202 -220 -207
-112 -4 -131 -2 -114 8 85 56 108 118 59 163 -15 14 -30 25 -34 25 -17 0 -19
35 -5 128 16 112 45 456 45 543 0 39 4 61 13 64 6 2 75 8 152 12 l140 8 3 -35
c2 -19 -4 -165 -12 -325z m-2185 308 c21 -25 15 -99 -14 -185 -38 -107 -37
-115 18 -123 54 -9 78 -25 70 -47 -7 -18 -17 -22 -76 -32 -81 -14 -69 -65 30
-134 66 -47 104 -89 95 -104 -4 -6 -24 -7 -46 -4 -50 8 -68 -5 -68 -50 0 -25
10 -44 45 -81 25 -26 45 -50 45 -54 0 -3 -10 -11 -22 -17 -20 -10 -17 -11 22
-9 43 2 45 4 45 31 0 23 -9 37 -43 63 -23 18 -43 36 -43 40 0 4 20 13 45 20
25 7 49 19 53 26 4 6 8 36 8 66 l0 54 65 34 c36 19 94 53 129 75 35 22 67 36
71 31 4 -4 26 -84 49 -177 44 -179 50 -194 88 -240 42 -50 16 -124 -51 -145
-56 -18 -281 -41 -404 -41 -115 0 -120 1 -159 29 -55 40 -81 105 -94 236 -11
113 0 282 23 342 11 30 10 34 -29 81 -63 74 -62 82 18 168 59 63 61 68 55 106
-4 21 -4 43 -1 49 10 15 62 10 76 -8z m-424 -110 c166 -151 243 -227 243 -239
0 -15 -135 -37 -540 -89 -195 -24 -365 -47 -377 -50 -58 -14 -150 69 -301 270
l-105 140 44 7 c24 4 217 18 429 32 370 25 451 31 477 34 6 1 65 -46 130 -105z
m-994 -151 c149 -199 179 -254 185 -347 2 -40 -3 -135 -12 -211 -19 -166 -36
-463 -36 -664 -1 -234 -25 -421 -52 -404 -7 5 -9 82 -7 233 l4 226 -115 0
-115 0 -6 -185 c-6 -188 -19 -269 -46 -292 -16 -13 -108 -17 -135 -6 -17 7
-18 29 -18 256 l0 249 -152 11 c-222 17 -284 16 -293 -5 -4 -10 -11 -109 -15
-220 -9 -205 -16 -243 -49 -243 -38 0 -44 22 -31 132 6 57 14 193 17 304 l6
200 156 89 c268 152 317 193 342 284 7 26 15 147 18 281 5 165 11 242 20 260
19 36 204 221 212 212 4 -4 59 -76 122 -160z m3032 111 c-3 -16 -9 -71 -15
-123 -6 -52 -13 -108 -17 -124 l-5 -28 -80 78 c-88 87 -126 151 -108 184 14
26 59 38 152 39 l78 1 -5 -27z m-815 -68 c85 -14 159 -30 164 -35 17 -17 -69
-29 -269 -40 -218 -11 -253 -18 -303 -61 -18 -16 -37 -29 -43 -29 -17 0 -69
30 -69 40 0 21 165 118 240 141 46 14 124 9 280 -16z m702 -192 c86 -119 108
-156 108 -185 0 -33 -17 -46 -82 -64 -61 -16 -527 -68 -765 -84 -183 -13 -197
-10 -212 48 -22 80 -42 189 -48 258 -5 59 -3 72 10 77 9 3 101 11 204 17 181
10 270 13 580 18 l141 2 64 -87z m-1324 8 c5 -30 -27 -121 -42 -121 -15 0 -96
59 -96 70 0 5 19 22 43 38 69 47 90 50 95 13z m-362 -125 c-7 -100 -32 -295
-39 -302 -4 -4 -671 -101 -856 -124 -68 -9 -96 -9 -104 -1 -12 12 -12 182 1
326 l7 80 205 28 c376 51 664 85 729 86 l64 1 -7 -94z m1959 -115 c-7 -78 -7
-78 22 -99 60 -46 65 -57 30 -74 -9 -4 -25 -12 -34 -17 -11 -5 -19 -22 -21
-45 -3 -33 2 -42 39 -77 l42 -39 -37 0 c-49 0 -52 -13 -35 -123 l14 -91 53
-30 c57 -33 75 -67 50 -92 -12 -13 -19 -11 -52 11 -20 14 -39 25 -42 25 -3 0
-4 -21 -2 -47 3 -44 1 -48 -21 -51 -19 -3 -43 15 -116 90 -132 136 -220 296
-189 346 14 22 34 22 45 0 5 -10 13 -26 17 -35 15 -31 40 -39 70 -23 35 20 35
44 0 48 -30 4 -53 26 -43 42 4 6 18 15 31 20 35 14 31 40 -6 40 -33 0 -38 11
-15 30 8 7 26 9 43 5 19 -4 33 -1 41 8 16 21 3 46 -28 53 -53 12 -54 12 -33
41 29 41 158 163 172 163 9 0 10 -20 5 -79z m1281 5 c42 -41 55 -78 34 -91
-16 -10 -12 -45 11 -81 19 -32 20 -34 2 -34 -27 0 -181 38 -204 50 -28 16 -24
31 20 74 36 35 47 54 65 109 8 27 25 21 72 -27z m370 -97 c15 -36 39 -55 79
-61 33 -5 25 -40 -12 -52 -18 -6 -40 -21 -48 -33 -27 -39 -118 -22 -136 25
-11 30 -3 62 16 62 19 0 35 32 35 67 0 65 39 61 66 -8z m-1922 -77 l-17 -57
-9 40 c-4 22 -18 48 -30 58 -25 21 -23 23 28 41 36 12 39 12 42 -5 2 -11 -4
-45 -14 -77z m-264 -2 c0 -51 -3 -62 -22 -74 -25 -16 -537 -80 -563 -70 -20 8
-21 116 -1 137 16 16 49 20 306 42 253 20 264 21 273 23 4 1 7 -25 7 -58z
m110 -36 c12 -31 13 -101 2 -108 -10 -6 -66 51 -76 77 -17 51 55 81 74 31z
m1535 -81 c67 -78 125 -160 125 -175 0 -18 -125 -50 -558 -144 -295 -63 -302
-63 -384 14 -84 78 -204 250 -187 267 3 3 399 55 784 104 152 19 146 21 220
-66z m330 16 c143 -28 264 -55 269 -60 9 -8 -66 -122 -117 -176 -37 -40 -74
-43 -168 -13 -109 33 -167 87 -248 231 -35 63 -39 83 -13 75 9 -2 134 -28 277
-57z m-1785 -19 c-6 -11 -15 -20 -21 -20 -13 0 -2 58 15 79 9 12 12 10 14 -12
2 -14 -2 -35 -8 -47z m-1560 -17 c34 -42 70 -92 79 -111 l16 -34 -46 -42 c-78
-71 -241 -192 -295 -219 -58 -29 -164 -52 -431 -93 l-183 -28 -26 25 c-31 29
-182 331 -190 380 -5 27 -2 38 10 42 32 13 912 151 988 156 9 1 43 -32 78 -76z
m1484 -80 c161 -172 296 -328 296 -343 0 -13 -48 -29 -247 -80 -194 -51 -696
-186 -721 -195 -20 -7 -86 59 -191 194 -54 69 -149 185 -210 256 l-110 130 32
7 c60 14 362 47 657 72 162 14 311 27 330 29 91 10 87 12 164 -70z m2293 0
c22 -16 73 -57 112 -93 l72 -66 -25 -182 c-14 -99 -27 -187 -28 -194 -1 -7 -5
68 -8 167 l-5 180 -65 -3 c-36 -1 -101 -11 -145 -20 l-80 -18 -5 -187 c-4
-155 -8 -189 -22 -203 -29 -29 -41 15 -40 150 0 217 37 389 99 457 44 48 82
52 140 12z m-1738 -78 c71 -78 165 -223 186 -286 14 -43 17 -72 12 -153 -8
-126 -23 -206 -42 -225 -13 -13 -22 -13 -72 3 -76 24 -142 62 -152 89 -5 14
-1 41 11 77 15 42 18 69 13 113 l-6 57 52 55 c67 71 68 95 5 148 -39 33 -46
45 -46 76 0 20 -9 47 -20 61 -23 30 -25 40 -6 40 8 0 37 -25 65 -55z m-1697
-87 c118 -122 271 -306 349 -421 40 -59 66 -87 93 -100 29 -14 36 -22 31 -35
-5 -13 -25 -114 -25 -129 0 -2 -4 -3 -8 -3 -10 0 -40 64 -82 176 -36 97 -57
119 -112 118 -51 -2 -62 -15 -76 -92 -7 -41 -20 -73 -36 -93 -27 -32 -46 -86
-46 -132 0 -34 -25 -97 -39 -97 -18 0 -31 37 -31 89 0 59 -12 93 -46 134 -20
24 -25 39 -21 66 10 82 -54 127 -119 85 -27 -18 -38 -13 -58 28 -15 31 -132
90 -170 86 -38 -4 -41 -15 -64 -245 l-17 -178 67 -17 c78 -20 110 -38 126 -73
31 -67 -44 -110 -193 -110 l-90 0 -3 50 c-6 94 39 647 55 683 17 35 94 106
214 195 74 55 175 116 193 117 5 0 54 -46 108 -102z m-2442 58 c0 -3 -39 -30
-87 -62 -98 -63 -144 -99 -137 -107 2 -2 26 0 52 4 91 18 93 -14 4 -54 -102
-45 -391 -118 -477 -121 -57 -1 -71 18 -36 53 26 26 41 55 41 80 0 44 81 78
332 140 70 18 167 40 215 50 48 11 89 19 91 20 1 1 2 -1 2 -3z m5238 -243 c-2
-109 -8 -206 -12 -215 -4 -10 -24 -22 -45 -27 -64 -17 -251 -44 -257 -38 -4 3
-2 75 3 159 6 84 9 156 7 159 -4 8 -187 -25 -226 -39 -34 -14 -38 -28 -48
-185 -4 -73 -11 -139 -14 -148 -8 -18 -48 -30 -156 -49 -36 -6 -78 -13 -93
-16 l-28 -6 7 194 c4 106 10 202 14 213 6 17 62 31 411 106 222 48 412 88 422
88 18 1 19 -10 15 -196z m222 164 c150 -42 146 -36 132 -242 -5 -84 -15 -162
-22 -175 -11 -20 -17 -22 -64 -17 -63 6 -158 42 -192 71 -22 18 -27 34 -35
104 -10 88 2 236 21 272 14 26 22 25 160 -13z m-4375 -99 c30 -61 59 -134 66
-162 6 -29 20 -58 32 -67 18 -14 21 -31 25 -107 2 -50 1 -107 -2 -126 -6 -32
-11 -37 -59 -51 -29 -9 -75 -19 -104 -22 -51 -6 -52 -5 -59 23 -4 16 0 151 10
299 17 259 23 325 33 325 2 0 28 -50 58 -112z m5045 -15 c0 -27 6 -53 15 -63
8 -9 18 -36 21 -61 5 -36 2 -49 -14 -69 -43 -52 -78 13 -70 130 8 103 48 156
48 63z m-343 -95 c-5 -135 -12 -178 -28 -178 -12 0 -11 85 2 195 11 97 15 115
25 115 4 0 4 -60 1 -132z m-6501 98 c16 -12 17 -18 7 -33 -39 -57 -56 -102
-57 -152 -1 -59 17 -80 33 -38 16 41 120 47 179 11 29 -19 28 -40 -3 -60 -51
-33 -27 -77 58 -104 38 -12 63 -42 51 -61 -4 -7 -25 -9 -58 -5 -29 4 -57 2
-66 -4 -13 -9 -12 -13 9 -30 20 -17 21 -21 7 -26 -22 -9 -91 3 -127 21 -35 19
-68 19 -94 2 -11 -7 -38 -24 -59 -37 l-39 -24 6 34 c7 34 -5 60 -28 60 -7 0
-29 -13 -50 -30 -40 -32 -77 -38 -120 -18 -42 19 -31 44 27 66 l53 20 -40 16
c-60 24 -70 31 -70 52 0 13 18 28 62 49 35 17 63 33 63 38 0 4 -20 7 -45 7
-51 0 -58 14 -22 47 30 28 61 43 87 43 13 0 38 17 59 40 21 23 46 40 58 40 31
0 37 17 18 46 -9 13 -13 29 -10 34 9 15 89 12 111 -4z m6614 -80 c0 -101 -22
-186 -49 -186 -26 0 -32 42 -21 139 9 79 22 119 44 133 20 13 26 -5 26 -86z
m-6040 -36 c12 -7 15 -33 15 -127 0 -65 -4 -144 -8 -175 -9 -61 -42 -121 -70
-126 -14 -3 -17 5 -17 55 0 47 -5 66 -25 93 -18 25 -25 47 -25 80 0 51 -13 70
-48 70 -31 0 -60 -17 -90 -51 -13 -16 -30 -29 -37 -29 -20 0 -40 73 -36 132 2
25 34 40 146 64 110 24 172 29 195 14z m218 -167 c-5 -170 -15 -233 -38 -233
-16 0 -12 111 10 260 11 74 20 138 20 143 0 4 3 7 6 7 4 0 4 -80 2 -177z
m1767 35 c-4 -79 -10 -146 -14 -149 -3 -4 -75 -23 -160 -43 l-154 -36 -34 21
c-29 18 -45 21 -98 17 -39 -4 -68 -1 -74 5 -25 25 -6 191 24 213 37 27 391
112 474 113 l43 1 -7 -142z m2123 118 c7 -16 21 -26 39 -28 26 -3 28 -6 26
-43 -4 -101 -16 -192 -29 -212 -27 -43 -114 -23 -114 25 0 9 5 57 10 106 19
162 41 211 68 152z m-3687 -27 c59 -15 62 -25 57 -157 -6 -128 -19 -169 -55
-178 -39 -10 -122 2 -142 20 -25 23 -35 111 -26 217 11 121 29 132 166 98z
m136 -6 c7 -29 -12 -301 -26 -363 -6 -27 -9 -11 -15 77 -7 102 -5 147 10 271
6 48 20 55 31 15z m3429 -9 c10 -52 -1 -164 -18 -180 -13 -13 -18 -12 -41 6
-41 32 -105 51 -199 57 -83 6 -90 5 -128 -21 -22 -14 -52 -44 -67 -67 -25 -38
-27 -50 -34 -193 -9 -180 -21 -229 -65 -262 -43 -33 -344 -110 -357 -91 -22
31 21 543 47 563 29 20 774 222 828 223 23 1 28 -4 34 -35z m986 -21 c7 -57
-8 -164 -26 -181 -15 -15 -18 -15 -33 1 -15 15 -16 24 -4 94 21 124 53 168 63
86z m-3993 30 c22 -6 23 -9 17 -67 -4 -34 -10 -123 -15 -199 -4 -76 -12 -142
-18 -148 -14 -14 -85 -22 -101 -11 -23 16 -32 83 -32 260 l0 172 63 0 c34 0
73 -3 86 -7z m3871 -135 c-7 -19 -9 -15 -9 22 0 37 2 41 9 23 6 -14 6 -32 0
-45z m-5022 -32 c-2 -45 2 -58 25 -85 29 -35 27 -56 -5 -48 -14 4 -22 -1 -28
-19 -16 -40 -96 -59 -134 -31 -17 12 -15 15 17 40 23 17 49 56 77 112 23 47
44 85 46 85 2 0 3 -24 2 -54z m3041 31 c6 -8 16 -61 22 -118 11 -104 27 -149
54 -149 19 0 37 -34 29 -55 -4 -8 -27 -21 -51 -28 -33 -9 -48 -19 -55 -37 -14
-37 5 -128 42 -199 26 -49 29 -63 20 -80 -12 -23 -15 -24 -79 -21 -24 1 -61
-6 -83 -16 -38 -17 -39 -17 -54 4 -9 13 -30 23 -59 28 -25 3 -45 9 -45 13 0 3
9 17 20 31 25 32 25 61 0 110 -11 22 -20 45 -20 52 0 17 44 43 87 53 58 12 87
91 43 115 -31 16 -24 52 20 107 48 61 63 97 55 134 -11 50 26 89 54 56z
m-1466 -59 l-11 -43 -1 55 c-1 41 2 51 11 42 8 -8 8 -23 1 -54z m872 29 c7
-24 -18 -147 -35 -176 -11 -18 -14 138 -4 177 8 29 32 28 39 -1z m1510 -7 c37
-14 29 -37 -28 -76 -39 -27 -54 -32 -80 -27 -84 16 -109 54 -61 92 30 23 121
29 169 11z m-4797 -12 c7 -7 12 -33 12 -60 0 -65 -17 -74 -113 -57 -142 24
-141 50 6 105 73 27 79 28 95 12z m3495 -64 c3 -49 10 -71 27 -89 19 -20 21
-30 15 -79 -6 -47 -4 -60 10 -76 13 -14 18 -34 17 -66 -2 -48 7 -72 45 -117
27 -33 23 -47 -15 -47 -15 0 -35 -8 -44 -19 -17 -21 -96 -36 -131 -25 -12 4
-33 15 -46 25 -17 14 -40 19 -82 19 -33 0 -59 3 -58 8 0 4 37 38 81 76 44 38
87 80 96 94 15 24 15 25 -18 52 l-34 28 27 81 c15 44 27 90 27 101 0 40 42 98
71 100 4 0 9 -30 12 -66z m1470 -13 c22 -21 38 -123 28 -172 -7 -32 -8 -30
-13 24 -4 32 -12 65 -19 73 -18 21 -104 19 -128 -5 -19 -19 -41 -133 -41 -213
0 -31 -3 -39 -11 -31 -7 7 -10 55 -8 142 4 125 5 132 30 156 30 31 96 56 124
48 11 -3 28 -13 38 -22z m-308 -50 c73 -23 81 -47 66 -175 -6 -55 -19 -116
-29 -135 -15 -32 -21 -36 -52 -33 -44 4 -78 26 -90 58 -6 14 -10 91 -10 170
l0 146 33 -7 c17 -4 54 -15 82 -24z m1169 4 c-53 -23 -185 -55 -249 -60 l-60
-5 35 16 c46 21 225 63 270 62 l35 0 -31 -13z m-2844 -68 c0 -83 -18 -238 -28
-249 -15 -15 -232 228 -232 259 0 7 17 17 38 23 75 21 158 38 190 39 l32 1 0
-73z m-368 34 c34 -42 521 -574 607 -664 44 -46 71 -81 65 -86 -12 -11 -476
-280 -837 -485 -277 -158 -278 -158 -300 -140 -41 36 -323 289 -497 448 -196
178 -330 307 -330 317 0 4 31 23 68 42 67 36 111 72 99 83 -3 3 -45 -12 -94
-34 -142 -64 -451 -154 -730 -212 -199 -42 -186 -32 228 178 310 156 439 215
619 279 200 71 806 241 795 223 -3 -5 -141 -78 -308 -162 -331 -169 -425 -224
-410 -239 7 -7 174 72 499 235 269 135 492 245 496 245 4 1 17 -12 30 -28z
m-3742 -45 l115 -32 -45 -26 c-212 -122 -313 -168 -366 -168 -38 0 -80 26
-104 65 -30 49 -57 47 -254 -25 -91 -33 -168 -60 -171 -60 -53 0 320 185 515
256 91 33 167 31 310 -10z m2520 4 c18 -6 7 -8 -40 -8 -47 0 -58 2 -40 8 14 4
32 8 40 8 8 0 26 -4 40 -8z m3520 -105 c0 -53 -5 -88 -14 -100 -13 -18 -14
-18 -25 3 -6 11 -11 55 -11 97 0 42 5 86 11 97 11 21 12 21 25 3 9 -12 14 -47
14 -100z m-1603 77 c14 -8 9 -11 -27 -17 -48 -7 -100 7 -100 26 0 14 98 7 127
-9z m733 -198 c0 -159 -16 -200 -56 -139 -13 20 -15 39 -11 81 5 48 3 57 -19
81 -32 34 -27 55 14 69 17 5 37 15 44 22 21 21 28 -7 28 -114z m-5472 -83
c230 -202 243 -220 175 -258 -198 -109 -1374 -726 -1448 -758 l-57 -26 -32 25
c-133 101 -542 488 -532 504 8 14 200 93 471 196 235 88 1244 454 1257 455 4
1 79 -62 166 -138z m1293 -16 c465 -103 587 -107 1003 -36 273 47 249 44 241
31 -9 -14 -114 -74 -335 -190 -237 -125 -323 -174 -373 -213 -49 -38 -36 -48
55 -45 37 1 71 -1 75 -6 4 -4 8 -70 7 -146 0 -149 -14 -205 -58 -233 -12 -8
-83 -33 -158 -55 -76 -23 -177 -59 -225 -81 -117 -52 -135 -57 -154 -34 -15
18 -59 118 -59 135 0 4 19 7 43 6 41 -3 42 -2 45 29 2 23 -10 59 -40 118 l-43
86 32 27 c55 46 52 94 -11 180 -15 20 -29 59 -37 105 -15 89 -33 127 -60 127
-36 0 -58 -19 -108 -94 -28 -40 -56 -76 -65 -79 -22 -9 -106 49 -106 73 0 15
7 20 24 20 52 0 74 60 36 95 -28 25 -25 39 15 69 19 15 35 31 35 36 0 4 -17
30 -38 57 -57 72 -57 73 -22 73 16 0 143 -25 281 -55z m3286 -25 c24 -10 43
-24 43 -29 0 -17 -88 -13 -126 5 -33 16 -59 46 -48 57 7 7 83 -11 131 -33z
m1477 24 c9 -3 16 -14 16 -24 0 -23 -37 -35 -155 -50 -57 -7 -128 -26 -193
-50 -208 -79 -492 -116 -492 -66 0 18 27 24 86 19 38 -4 64 1 110 20 74 31
279 91 439 128 125 29 162 33 189 23z m-1294 -96 c28 -18 48 -22 100 -20 116
3 188 -15 131 -33 -30 -9 -261 -35 -317 -35 -52 0 -114 16 -114 29 0 17 42 45
92 62 67 23 66 23 108 -3z m-3501 -150 c5 -13 13 -58 19 -101 7 -54 20 -97 41
-138 17 -33 29 -65 25 -70 -9 -15 -49 -3 -95 28 -38 25 -40 25 -59 8 -11 -10
-20 -24 -20 -32 0 -7 36 -52 81 -100 83 -90 114 -136 104 -154 -4 -5 -26 -7
-55 -3 -46 6 -49 5 -55 -18 -6 -24 7 -63 41 -118 22 -36 13 -143 -15 -181 -26
-35 -26 -51 -1 -74 11 -10 22 -32 26 -50 7 -37 -17 -102 -40 -111 -26 -10
-115 17 -147 44 -19 15 -33 21 -37 15 -13 -19 -51 -33 -93 -33 l-42 0 7 70 7
71 -61 59 c-34 33 -66 60 -71 60 -5 0 -9 4 -9 9 0 5 17 12 37 16 60 11 91 31
98 66 9 40 -3 136 -21 171 -12 23 -12 29 2 42 8 9 22 16 30 16 25 0 54 61 54
116 0 38 -6 61 -25 88 -30 44 -30 46 -6 46 35 0 52 12 66 46 9 22 32 44 65 65
51 31 71 59 84 114 14 56 49 74 65 33z m-1069 -308 c-13 -100 -28 -156 -47
-171 -23 -20 -26 16 -17 170 10 156 8 191 -10 191 -23 0 -166 -91 -183 -117
-15 -22 -19 -58 -23 -207 l-5 -180 -175 -104 c-381 -227 -970 -572 -1052 -616
l-87 -47 -6 24 c-4 13 -2 58 4 100 6 42 14 152 17 245 l7 169 336 167 c329
165 874 447 1121 583 l125 68 3 -95 c2 -52 -2 -133 -8 -180z m2678 128 c146
-130 448 -405 570 -519 l93 -87 -3 -170 c-2 -111 -7 -175 -14 -182 -18 -18
-54 6 -54 35 0 33 -48 84 -85 91 -25 5 -36 0 -66 -30 -50 -50 -89 -134 -89
-191 0 -42 -5 -51 -60 -110 -33 -35 -60 -69 -60 -75 0 -6 9 -28 20 -50 29 -56
25 -80 -21 -149 -35 -52 -43 -59 -59 -51 -11 6 -23 27 -27 48 -10 47 -7 247 7
507 l11 201 -103 101 c-148 145 -253 237 -333 295 l-70 50 -71 -6 c-40 -3
-143 -24 -230 -47 -214 -55 -205 -54 -215 -38 -10 15 -10 153 0 269 l6 75 340
66 c187 37 353 67 369 68 23 1 52 -20 144 -101z m-2585 6 c22 -107 30 -131 61
-173 61 -84 54 -111 -31 -111 -71 0 -78 13 -78 142 0 126 10 191 28 185 7 -2
16 -21 20 -43z m-216 -51 c5 -16 8 -83 8 -151 l0 -124 -37 -34 c-45 -41 -83
-45 -92 -11 -8 32 11 192 30 249 17 54 49 98 70 98 7 0 17 -12 21 -27z m4646
-65 c8 -104 0 -137 -52 -223 -22 -38 -41 -76 -41 -85 0 -8 -13 -31 -29 -51
-40 -48 -51 -95 -57 -234 -4 -92 -2 -132 10 -169 10 -34 12 -55 5 -67 -9 -18
-85 -71 -148 -104 l-32 -16 6 303 c4 184 3 308 -3 316 -11 17 -28 9 -179 -81
l-102 -61 -5 -70 c-3 -39 -13 -192 -22 -341 -9 -148 -17 -271 -18 -271 0 -1
-57 -36 -124 -79 -141 -89 -185 -101 -257 -67 l-40 19 35 10 c33 9 35 11 35
54 -1 24 -3 69 -5 99 l-5 55 50 6 c28 4 64 12 80 19 54 21 122 70 135 98 9 18
15 86 18 211 5 212 17 199 -110 124 -124 -74 -128 -80 -144 -225 -20 -180 -17
-174 -71 -187 -37 -10 -48 -9 -55 1 -5 7 -7 78 -4 162 3 82 6 183 6 225 l0 76
163 95 c298 173 941 540 948 540 3 0 9 -37 12 -82z m-6658 -18 c35 -17 249
-204 468 -410 l59 -55 -11 -180 c-15 -234 -29 -378 -42 -437 -10 -43 -14 -48
-39 -48 -15 0 -41 5 -58 11 -51 18 -56 44 -49 288 l5 218 -145 38 c-132 34
-146 36 -161 22 -12 -13 -18 -58 -27 -221 -7 -140 -15 -209 -24 -220 -23 -28
-97 -19 -367 44 -142 34 -259 62 -259 63 -1 1 2 108 7 237 10 301 23 429 46
452 16 17 357 168 452 201 61 22 96 21 145 -3z m6730 -260 c13 -68 32 -80 133
-80 110 0 150 -31 58 -44 -55 -9 -68 -32 -32 -62 14 -12 44 -25 68 -29 59 -10
93 -32 77 -51 -6 -8 -22 -14 -35 -14 -27 0 -54 -24 -54 -49 0 -10 -11 -23 -25
-29 -49 -22 -19 -98 51 -127 41 -17 42 -27 8 -54 -25 -19 -28 -20 -62 -5 -64
28 -92 33 -117 24 -26 -10 -45 -38 -45 -69 0 -35 -27 -51 -89 -51 -44 0 -65 5
-86 21 -25 20 -26 26 -20 74 5 47 3 54 -25 89 -47 60 -36 108 31 130 42 14 48
49 9 54 -36 5 -50 20 -50 54 0 41 15 65 53 84 44 23 48 32 41 90 -6 48 -4 52
26 78 50 41 72 32 85 -34z m-2221 16 c49 -20 386 -315 386 -338 0 -17 -493
-240 -661 -298 -45 -16 -77 -2 -174 75 -84 67 -345 304 -345 313 0 8 567 228
637 247 64 18 116 18 157 1z m-2374 -31 c11 -13 9 -20 -11 -41 -29 -31 -90
-64 -119 -64 -24 0 -70 42 -70 64 0 43 170 77 200 41z m1897 -39 c-27 -21
-607 -212 -607 -200 0 10 152 78 256 115 116 40 324 98 354 98 12 0 11 -2 -3
-13z m2247 -72 c16 -43 -3 -474 -23 -511 -3 -7 -6 95 -6 226 0 217 -2 241 -18
259 -18 20 -18 21 0 31 26 15 40 13 47 -5z m-6966 -149 c-3 -36 -11 -72 -18
-80 -11 -13 -16 -12 -40 5 -37 26 -40 26 -81 -16 -18 -20 -46 -42 -61 -50 -39
-20 -68 -82 -68 -144 0 -84 35 -132 105 -144 22 -4 94 -25 160 -46 136 -45
247 -70 308 -70 97 0 201 -48 181 -83 -16 -28 -99 -90 -152 -114 -89 -41 -232
-33 -567 33 -317 62 -536 134 -590 194 l-20 22 30 24 c17 14 140 95 275 181
135 86 310 201 389 255 79 54 146 98 149 98 3 0 2 -29 0 -65z m6791 20 c-5
-22 -13 -141 -18 -263 -9 -229 -23 -298 -37 -186 -12 100 23 439 50 483 13 21
15 7 5 -34z m111 -72 c0 -179 -38 -372 -75 -387 -22 -8 -28 45 -20 173 11 194
43 321 80 321 12 0 15 -19 15 -107z m-2520 39 c19 -15 102 -87 184 -162 82
-74 172 -154 200 -178 28 -24 64 -55 80 -68 l29 -25 -6 -232 c-9 -336 -31
-488 -69 -487 -7 1 -56 11 -108 23 -89 21 -95 24 -94 47 1 14 5 124 9 246 l7
221 -64 16 c-177 48 -276 58 -298 32 -9 -11 -16 -82 -22 -218 -6 -111 -12
-204 -14 -206 -6 -7 -183 30 -226 46 -56 22 -61 45 -47 214 6 79 14 260 18
403 l6 258 105 40 c122 46 215 69 250 62 14 -3 41 -17 60 -32z m-3464 -82 c30
-13 45 -26 50 -44 11 -47 0 -374 -14 -388 -6 -6 -13 -10 -13 -7 -1 2 -4 91 -8
197 -7 219 -8 222 -88 222 -32 0 -45 -5 -53 -20 -6 -10 -20 -88 -31 -172 -11
-84 -25 -157 -30 -163 -20 -21 -1 299 23 374 l10 33 56 -6 c30 -4 75 -15 98
-26z m-986 -9 c14 -28 13 -63 -5 -87 -17 -25 -11 -34 21 -34 31 0 47 -33 39
-79 -16 -87 -66 -105 -146 -52 -45 30 -96 78 -88 84 85 61 149 132 152 167 2
25 13 26 27 1z m6640 -23 c0 -81 -49 -248 -82 -285 -11 -12 -34 -27 -50 -34
-28 -11 -33 -11 -49 10 -26 32 -28 224 -3 260 16 22 145 91 171 91 9 0 13 -15
13 -42z m-973 -205 c-6 -198 -25 -400 -42 -445 -20 -52 -26 12 -23 248 2 174
0 256 -8 264 -8 8 -24 6 -60 -9 -51 -20 -404 -188 -412 -196 -4 -4 -41 -534
-42 -602 0 -27 -8 -39 -42 -63 -22 -16 -50 -30 -61 -30 -19 0 -20 5 -14 118 3
64 11 234 18 377 6 143 13 261 15 263 5 6 659 292 668 292 5 0 6 -92 3 -217z
m-4708 163 c20 -24 24 -81 11 -173 -12 -85 -32 -143 -49 -143 -4 0 -16 9 -26
20 -16 18 -19 38 -18 143 0 148 5 167 42 167 16 0 34 -6 40 -14z m5121 -68 c6
-7 21 -31 33 -53 17 -30 32 -42 60 -50 63 -18 75 -66 32 -129 -46 -68 -27 -91
70 -84 l65 6 0 -27 c0 -15 7 -37 16 -49 19 -28 13 -37 -40 -61 -88 -39 -66
-121 33 -121 15 0 35 -6 45 -13 17 -13 17 -14 1 -30 -9 -9 -27 -17 -41 -17
-31 0 -44 -30 -20 -44 47 -29 46 -31 -5 -27 -65 4 -81 -10 -49 -44 21 -22 22
-28 10 -36 -21 -14 -319 -6 -347 10 -42 22 -24 61 27 61 10 0 22 5 25 10 13
21 -16 37 -77 44 -33 3 -67 11 -75 18 -20 16 -10 61 27 118 35 55 37 74 10
115 -11 17 -20 43 -20 59 0 25 3 27 25 22 18 -5 25 -2 25 8 0 21 19 30 58 28
63 -5 80 33 37 78 -14 15 -28 43 -32 63 -5 32 -2 40 26 64 17 15 31 37 31 48
0 21 17 45 32 45 4 0 12 -6 18 -12z m-523 -290 c-6 -202 -16 -285 -30 -261
-12 18 18 463 31 463 2 0 2 -91 -1 -202z m-81 -284 c-3 -7 -62 -46 -132 -88
l-127 -77 7 218 c4 120 12 222 17 227 4 5 59 38 121 72 l113 63 3 -202 c1
-111 0 -207 -2 -213z m-5147 360 c187 -41 305 -74 319 -89 9 -8 -10 -23 -38
-30 -18 -4 -37 1 -64 20 -31 21 -58 29 -126 35 -114 12 -220 35 -281 61 -48
21 -56 29 -42 42 10 11 13 10 232 -39z m4890 -53 c-16 -31 -23 -78 -35 -218
-8 -98 -21 -212 -29 -253 -14 -73 -14 -70 -11 145 3 234 15 304 57 346 31 31
40 22 18 -20z m1705 2 c-20 -15 -54 -18 -54 -4 0 14 64 42 69 29 2 -6 -4 -17
-15 -25z m-5990 -22 c17 -6 17 -8 4 -14 -21 -7 -59 3 -52 14 6 11 22 11 48 0z
m-1646 -70 c20 -10 46 -28 56 -40 19 -21 19 -21 0 -21 -24 0 -114 55 -114 70
0 15 16 12 58 -9z m5203 -27 c52 -9 104 -20 117 -25 l23 -9 -3 -204 c-2 -112
-6 -208 -10 -212 -19 -18 -23 19 -25 199 -1 190 -2 191 -25 200 -48 18 -170
39 -179 30 -7 -7 -37 -167 -52 -278 -9 -65 -6 63 3 160 13 135 18 155 39 155
10 0 60 -7 112 -16z m2319 -59 c0 -19 -29 -40 -110 -80 -41 -21 -109 -57 -151
-81 -76 -44 -114 -55 -107 -31 5 16 166 126 258 175 69 38 110 44 110 17z
m-2280 -35 c25 -17 25 -19 23 -144 -2 -70 -7 -135 -13 -146 -14 -26 -44 -25
-100 3 -43 21 -45 24 -48 72 -5 64 15 193 34 222 11 18 20 21 47 17 17 -3 43
-14 57 -24z m-4955 10 c-3 -5 -22 -10 -41 -10 -19 0 -34 5 -34 10 0 6 18 10
41 10 24 0 38 -4 34 -10z m264 -45 c62 -13 120 -29 129 -34 46 -28 -148 4
-268 42 l-45 15 36 1 c20 1 86 -10 148 -24z m5884 -119 c37 -15 107 -77 107
-95 0 -18 -33 -13 -91 13 -35 16 -83 27 -138 31 -78 7 -83 9 -65 22 55 43 128
54 187 29z"/>
<path d="M8795 5680 c-18 -20 -40 -177 -29 -212 8 -27 70 -35 96 -12 30 27 48
76 48 133 0 64 -6 79 -41 96 -37 20 -52 19 -74 -5z m75 -70 c0 -53 -39 -125
-57 -106 -6 5 14 110 24 129 11 20 33 5 33 -23z"/>
<path d="M6690 4492 c0 -132 3 -172 15 -189 16 -23 58 -33 139 -35 82 -1 86 8
102 285 l6 107 -131 0 -131 0 0 -168z m185 128 c18 -8 17 -9 -7 -9 -74 -2 -97
-32 -117 -156 -19 -115 -33 -114 -29 2 3 84 7 107 24 130 29 38 84 52 129 33z
m-17 -137 c4 -60 -12 -143 -28 -143 -17 0 -32 83 -25 134 13 105 46 110 53 9z"/>
<path d="M7936 4615 c-41 -22 -53 -41 -71 -117 -30 -134 -18 -165 63 -155 77
10 121 26 134 50 17 32 17 199 -1 220 -17 22 -86 22 -125 2z m75 -61 c17 -21
-3 -34 -52 -34 -42 0 -66 19 -47 38 17 17 83 15 99 -4z m-3 -96 c16 -16 15
-23 -4 -42 -19 -20 -77 -21 -93 -3 -25 31 68 74 97 45z"/>
<path d="M7441 4554 c-30 -8 -60 -19 -67 -25 -23 -19 -36 -80 -38 -172 l-1
-91 35 -7 c58 -13 149 1 179 27 25 21 26 28 29 128 5 158 -11 174 -137 140z
m97 -53 c42 -26 -30 -81 -105 -81 -39 0 -43 2 -43 25 0 46 103 85 148 56z
m-11 -148 c5 -15 -44 -41 -96 -49 -33 -5 -42 -3 -47 10 -4 10 1 25 12 37 14
16 28 19 73 17 31 -2 56 -8 58 -15z"/>
<path d="M11223 3797 c-45 -8 -53 -14 -62 -40 -13 -37 -14 -187 -1 -207 7 -12
16 -13 55 -2 25 7 54 12 64 12 28 0 41 43 41 135 0 124 2 122 -97 102z m57
-56 c5 -11 10 -42 10 -70 l0 -50 -47 -15 c-27 -7 -52 -10 -56 -6 -13 12 3 94
24 129 21 35 53 41 69 12z"/>
<path d="M9250 3304 c-33 -9 -64 -25 -77 -40 -21 -23 -23 -35 -23 -134 0 -60
4 -111 9 -114 10 -7 138 43 177 69 14 9 29 27 34 41 11 28 13 153 4 178 -8 20
-49 20 -124 0z m40 -140 c0 -23 -4 -34 -12 -32 -33 11 -36 68 -3 68 11 0 15
-10 15 -36z"/>
<path d="M1100 1882 c-21 -17 -25 -31 -30 -91 -7 -89 2 -207 16 -221 16 -16
118 -31 191 -28 l68 3 3 60 c6 106 -8 225 -28 245 -21 21 -68 36 -145 45 -42
6 -55 3 -75 -13z m168 -104 c21 -21 14 -74 -14 -107 -29 -35 -45 -38 -68 -15
-22 21 -20 62 4 102 21 34 55 43 78 20z"/>
<path d="M12656 3273 c-84 -12 -136 -32 -136 -53 0 -5 10 -21 23 -35 20 -24
30 -27 84 -27 34 0 77 5 96 11 72 24 103 97 47 111 -14 4 -65 1 -114 -7z"/>
<path d="M12018 3160 c-236 -43 -458 -120 -713 -250 -231 -117 -517 -280 -582
-331 -96 -77 -251 -182 -365 -250 -65 -38 -146 -93 -180 -121 -100 -83 -265
-246 -330 -327 -48 -60 -59 -79 -56 -105 5 -55 31 -44 136 56 53 52 167 155
253 230 153 133 189 172 189 202 0 12 7 14 29 10 48 -10 151 57 151 98 0 12 8
18 23 18 36 1 97 33 259 136 343 219 762 404 1223 540 173 50 199 64 174 89
-24 24 -97 26 -211 5z m-118 -80 c-46 -30 -660 -263 -660 -250 0 8 162 86 284
135 184 75 431 151 376 115z m-1034 -479 c-25 -27 -136 -104 -136 -94 0 21
137 130 148 118 3 -3 -3 -13 -12 -24z m-597 -407 c-41 -43 -241 -217 -284
-247 -72 -50 138 157 248 245 61 48 82 49 36 2z m-369 -351 c0 -10 -32 -43
-42 -43 -10 0 -11 34 -1 43 8 9 43 9 43 0z"/>
<path d="M9963 2354 c-3 -8 2 -23 11 -32 15 -15 17 -15 32 0 21 21 11 48 -16
48 -11 0 -23 -7 -27 -16z"/>
<path d="M9100 1600 c-19 -12 -5 -27 46 -46 57 -22 56 -24 -33 -179 l-68 -116
-370 7 c-363 6 -455 1 -455 -26 0 -19 55 -22 301 -15 184 5 288 3 367 -6 134
-15 157 -8 212 65 59 79 130 209 136 248 7 38 11 36 -112 73 -6 2 -17 0 -24
-5z"/>
<path d="M9552 1526 c-41 -47 -136 -192 -284 -436 -188 -309 -266 -432 -411
-648 -189 -282 -244 -404 -195 -435 26 -17 46 8 134 156 89 153 259 422 458
727 326 501 391 614 369 649 -17 27 -39 23 -71 -13z m-28 -142 c-76 -133 -234
-364 -247 -364 -4 0 19 42 49 93 78 127 246 378 251 373 2 -2 -22 -48 -53
-102z m-734 -1139 c0 -10 -58 -120 -74 -140 -10 -13 -15 -15 -16 -6 0 19 71
151 81 151 5 0 9 -2 9 -5z"/>
<path d="M8140 1276 c0 -29 17 -43 33 -27 8 8 9 16 1 28 -17 27 -34 27 -34 -1z"/>
<path d="M2850 1089 c-93 -8 -242 -44 -295 -72 -34 -18 -37 -22 -18 -25 19 -3
411 82 420 92 9 9 -37 11 -107 5z"/>
<path d="M8460 1084 c-11 -12 -10 -18 3 -31 8 -9 23 -13 31 -10 21 8 21 43 0
51 -21 8 -20 8 -34 -10z"/>
<path d="M3165 1074 c141 -22 266 -58 553 -158 147 -52 294 -99 327 -105 73
-14 135 -14 135 -1 0 9 -32 20 -125 40 -47 10 -185 57 -491 164 -174 61 -247
76 -379 75 l-110 -1 90 -14z"/>
<path d="M8553 1084 c-18 -8 -16 -21 5 -29 9 -4 70 -10 136 -15 65 -5 123 -13
129 -19 6 -6 -11 -44 -52 -112 -64 -108 -78 -148 -40 -113 45 40 149 213 149
248 0 8 -15 19 -32 26 -34 13 -274 24 -295 14z"/>
<path d="M8629 698 c-39 -48 -91 -124 -231 -338 -100 -153 -138 -198 -138
-166 0 10 8 31 17 47 22 37 14 52 -52 97 -56 38 -110 42 -110 8 0 -15 12 -22
53 -31 30 -7 58 -17 64 -23 14 -14 1 -32 -25 -32 -39 0 -67 -12 -67 -28 0 -8
11 -30 25 -48 39 -52 42 -51 -79 -6 l-68 26 -18 -22 c-34 -41 -62 -45 -385
-50 -368 -5 -731 10 -943 40 -125 17 -160 19 -186 10 -43 -16 -126 -15 -206 3
-36 8 -128 19 -205 25 -223 17 -285 26 -306 46 -25 22 -26 82 -1 91 9 4 41 26
70 50 54 43 86 52 122 33 20 -11 354 -43 423 -41 20 0 64 7 96 16 71 18 120
19 158 3 15 -7 73 -15 128 -18 55 -4 129 -13 165 -20 38 -7 147 -13 265 -14
176 -1 203 1 225 17 32 22 61 22 104 -3 28 -17 44 -20 85 -14 36 5 62 2 91
-10 50 -20 147 -21 220 -1 51 14 56 13 75 -5 21 -20 21 -20 55 15 21 22 47 37
69 41 64 10 75 15 60 25 -15 9 -57 5 -189 -17 -108 -18 -248 -18 -375 1 -136
20 -168 19 -227 -7 l-50 -21 -172 16 c-94 9 -229 22 -301 28 -78 7 -152 19
-185 31 -87 31 -95 31 -172 12 -88 -22 -199 -22 -417 2 -211 22 -251 18 -302
-32 -23 -21 -54 -62 -71 -91 -27 -48 -33 -52 -76 -59 -50 -7 -382 2 -419 12
-30 8 -29 14 8 60 l30 39 -20 17 c-12 9 -26 18 -32 20 -6 2 -12 17 -13 33 -2
16 -10 31 -17 34 -26 8 -59 51 -59 76 0 18 -7 28 -26 35 -47 18 -79 11 -148
-35 -38 -24 -85 -47 -105 -51 -118 -20 -156 -44 -168 -107 l-9 -42 -114 0
c-63 1 -161 5 -217 9 -72 6 -103 6 -103 -2 0 -32 384 -79 988 -122 301 -21
431 -34 492 -50 19 -5 60 -15 91 -23 31 -8 118 -20 195 -26 76 -7 173 -19 214
-27 49 -9 207 -17 455 -24 404 -10 481 -14 670 -32 175 -16 809 22 927 55 41
12 48 21 135 152 50 77 132 201 181 275 87 133 112 180 95 180 -5 0 -25 -19
-44 -42z m-3562 -165 c13 -28 25 -39 46 -41 31 -4 36 -18 8 -27 -23 -7 -35
-35 -22 -48 5 -5 24 -12 42 -16 121 -25 -67 -90 -221 -77 -143 13 -179 34
-165 97 8 34 31 49 77 49 44 1 106 30 142 69 41 43 70 41 93 -6z"/>
</g>
</svg>
